<svg width="482" height="382" viewBox="0 0 482 382" fill="none" xmlns="http://www.w3.org/2000/svg">
<path class="path" d="M1 25C1 11.7452 11.7452 1 25 1H212.967C223.98 1 233.58 8.49514 236.251 19.1792L237.161 22.8209C239.832 33.5049 249.432 41 260.445 41H457C470.255 41 481 51.7452 481 65V357C481 370.255 470.255 381 457 381H25C11.7452 381 1 370.255 1 357V25Z" fill="#F7F5F7"/>
<path class="path-border"  fill-rule="evenodd" clip-rule="evenodd" d="M480 357V65C480 52.2975 469.703 42 457 42H260.445C248.973 42 238.973 34.1926 236.191 23.0634L235.281 19.4217C232.721 9.18284 223.521 2 212.967 2H25C12.2975 2 2 12.2975 2 25V357C2 369.703 12.2975 380 25 380H457C469.703 380 480 369.703 480 357ZM25 1C11.7452 1 1 11.7452 1 25V357C1 370.255 11.7452 381 25 381H457C470.255 381 481 370.255 481 357V65C481 51.7452 470.255 41 457 41H260.445C249.432 41 239.832 33.5049 237.161 22.8209L236.251 19.1792C233.58 8.49514 223.98 1 212.967 1H25Z" fill="#8F8F8F"/>
</svg>
