<?xml version="1.0" encoding="UTF-8"?><svg id="a" xmlns="http://www.w3.org/2000/svg" viewBox="0 0 480 380"><defs><style>.b{fill:#1775ef;}.c{fill:#8f8f8f;fill-rule:evenodd;}</style></defs><path class="b" d="M0,24C0,10.75,10.75,0,24,0H211.97c11.01,0,20.61,7.5,23.28,18.18l.91,3.64c2.67,10.68,12.27,18.18,23.28,18.18h196.55c13.26,0,24,10.75,24,24V356c0,13.26-10.74,24-24,24H24c-13.25,0-24-10.74-24-24V24Z"/><path class="c" d="M479,356V64c0-12.7-10.3-23-23-23h-196.55c-11.47,0-21.47-7.81-24.25-18.94l-.91-3.64c-2.56-10.24-11.76-17.42-22.31-17.42H24C11.3,1,1,11.3,1,24V356c0,12.7,10.3,23,23,23H456c12.7,0,23-10.3,23-23ZM24,0C10.75,0,0,10.75,0,24V356c0,13.26,10.75,24,24,24H456c13.26,0,24-10.74,24-24V64c0-13.25-10.74-24-24-24h-196.55c-11.01,0-20.61-7.5-23.28-18.18l-.91-3.64c-2.67-10.68-12.27-18.18-23.28-18.18H24Z"/></svg>