<?xml version="1.0" encoding="utf-8"?>
<!-- Generator: Adobe Illustrator 26.2.1, SVG Export Plug-In . SVG Version: 6.00 Build 0)  -->
<svg version="1.1" id="Layer_1" xmlns="http://www.w3.org/2000/svg" xmlns:xlink="http://www.w3.org/1999/xlink" x="0px" y="0px"
	 viewBox="0 0 240 234" style="enable-background:new 0 0 240 234;" xml:space="preserve">
<style type="text/css">
	.st0{fill:none;}
	.st1{fill:#FF9A00;}
	.st2{fill:#31A8FF;}
</style>
<g id="Layer_2_1_">
	<g>
		
			<image style="overflow:visible;" width="512" height="436" xlink:href="44CE649ED7310C43.png"  transform="matrix(0.2617 0 0 0.2617 -236.0019 -0.9446)">
		</image>
	</g>
</g>
<g>
	<g>
		
			<image style="overflow:visible;" width="512" height="190" xlink:href="44CE649ED7310C41.png"  transform="matrix(0.459 0 0 0.459 2.4502 65.6646)">
		</image>
	</g>
</g>
<g>
	<g>
		
			<image style="overflow:visible;" width="512" height="279" xlink:href="44CE649ED7310C47.png"  transform="matrix(0.4531 0 0 0.4531 -161.3484 -252.6516)">
		</image>
	</g>
</g>
<g>
	<g id="Layer_2_00000125572522532837197620000014695439060418283178_">
		<g id="Surfaces_00000089536778731710088350000006190205725223459496_">
			<g id="Drawing_Surface_00000070827778332018141920000004837706035155305106_">
				<g id="Outline_no_shadow_00000111871537754300625140000012863285663885954993_">
					<path class="st0" d="M322.5-213h155c23.5,0,42.5,19,42.5,42.5v149C520,2,501,21,477.5,21h-155C299,21,280,2,280-21.5v-149
						C280-194,299-213,322.5-213z"/>
				</g>
			</g>
		</g>
		<g id="Outlined_Mnemonics_Logos_00000160188173329829514770000009466271002988065956_">
			<g id="Ai_00000090254991273218734180000016221813040074076606_">
				<path class="st1" d="M396.3-72.6h-37.2l-7.6,23.5c-0.2,0.9-1,1.5-1.9,1.4h-18.8c-1.1,0-1.4-0.6-1.1-1.8l32.2-92.7
					c0.3-1,0.6-2.1,1-3.3c0.4-2.1,0.6-4.3,0.6-6.5c-0.1-0.5,0.3-1,0.8-1.1c0.1,0,0.2,0,0.3,0h25.6c0.8,0,1.2,0.3,1.3,0.8l36.5,103
					c0.3,1.1,0,1.6-1,1.6h-20.9c-0.7,0.1-1.4-0.4-1.6-1.1L396.3-72.6z M364.9-92.9h25.4c-0.6-2.1-1.4-4.6-2.3-7.2
					c-0.9-2.7-1.8-5.6-2.7-8.6c-1-3.1-1.9-6.1-2.9-9.2s-1.9-6-2.7-8.9c-0.8-2.8-1.5-5.4-2.2-7.8h-0.2c-0.9,4.3-2,8.6-3.4,12.9
					c-1.5,4.8-3,9.8-4.6,14.8C367.9-101.8,366.4-97.1,364.9-92.9L364.9-92.9z"/>
				<path class="st1" d="M449.8-136c-3.3,0.1-6.5-1.2-8.9-3.5c-2.3-2.5-3.5-5.8-3.4-9.2c-0.1-3.4,1.2-6.6,3.6-8.9
					c2.4-2.3,5.6-3.5,8.9-3.5c3.9,0,6.9,1.2,9.1,3.5c2.2,2.4,3.4,5.6,3.3,8.9c0.1,3.4-1.1,6.7-3.5,9.2
					C456.6-137.1,453.2-135.8,449.8-136z M438.6-49.2v-77c0-1,0.4-1.4,1.3-1.4h19.8c0.9,0,1.3,0.5,1.3,1.4v77c0,1.1-0.4,1.6-1.3,1.6
					h-19.6C439.1-47.6,438.6-48.2,438.6-49.2z"/>
			</g>
		</g>
	</g>
</g>
<g>
	<g>
		
			<image style="overflow:visible;" width="512" height="337" xlink:href="44CE649ED7310C40.png"  transform="matrix(0.4609 0 0 0.4609 -319.1426 172.397)">
		</image>
	</g>
</g>
<image style="overflow:visible;" width="1024" height="1024" xlink:href="vscode.png"  transform="matrix(0.1387 0 0 0.1387 -406 -355)">
</image>
<g>
	<g id="Layer_2_00000111901181446620284450000013128575382772807853_">
		<g id="Surfaces_00000157276821857434735780000008462759978453446294_">
			<g id="Photo_Surface">
				<g id="Outline_no_shadow_00000117649774440364065680000009829571400380485512_">
					<path class="st0" d="M471.5,72.9h79c12,0,21.7,9.7,21.7,21.7v76c0,12-9.7,21.7-21.7,21.7h-79c-12,0-21.7-9.7-21.7-21.7v-76
						C449.8,82.5,459.5,72.9,471.5,72.9z"/>
				</g>
			</g>
		</g>
		<g id="Outlined_Mnemonics_Logos_00000132068028038588544890000008881464633821695918_">
			<g id="Ps">
				<path class="st2" d="M477.3,156.5v-52.5c0-0.4,0.2-0.6,0.5-0.6c0.9,0,1.7,0,2.9-0.1c1.2-0.1,2.5-0.1,3.9-0.1
					c1.4-0.1,2.9-0.1,4.4-0.1c1.6-0.1,3.1-0.1,4.6-0.1c4.2,0,7.6,0.5,10.5,1.6c2.5,0.9,4.9,2.3,6.8,4.2c1.6,1.6,2.9,3.6,3.7,5.8
					c0.8,2.1,1.2,4.3,1.2,6.6c0,4.4-1,8-3.1,10.9s-4.9,5-8.2,6.2c-3.5,1.3-7.3,1.7-11.5,1.7c-1.2,0-2,0-2.5-0.1
					c-0.5-0.1-1.2-0.1-2.2-0.1v16.4c0.1,0.4-0.2,0.7-0.6,0.7c-0.1,0-0.1,0-0.2,0h-9.7C477.5,157.2,477.3,157,477.3,156.5z
					 M488.4,113.3v17.1c0.7,0.1,1.4,0.1,2,0.1h2.7c2,0,4-0.3,5.9-0.9c1.6-0.5,3.1-1.4,4.2-2.7c1.1-1.3,1.6-3,1.6-5.3
					c0.1-1.6-0.4-3.2-1.2-4.5c-0.9-1.3-2.1-2.3-3.6-2.9c-1.9-0.8-3.9-1.1-6-1c-1.3,0-2.5,0-3.5,0.1
					C489.5,113.2,488.8,113.3,488.4,113.3L488.4,113.3z"/>
				<path class="st2" d="M547.7,127.4c-1.5-0.8-3.2-1.4-4.9-1.7c-1.9-0.4-3.8-0.7-5.7-0.7c-1-0.1-2.1,0.1-3.1,0.4
					c-0.7,0.2-1.2,0.5-1.6,1c-0.3,0.4-0.4,0.9-0.4,1.4c0,0.5,0.2,0.9,0.5,1.3c0.5,0.6,1.1,1,1.7,1.4c1.2,0.6,2.4,1.2,3.6,1.7
					c2.8,0.9,5.4,2.2,7.9,3.7c1.7,1.1,3.1,2.5,4,4.2c0.8,1.6,1.2,3.4,1.2,5.3c0.1,2.4-0.7,4.8-2,6.8c-1.4,2-3.4,3.6-5.7,4.5
					c-2.5,1.1-5.6,1.6-9.2,1.6c-2.3,0-4.6-0.2-6.9-0.7c-1.8-0.3-3.6-0.9-5.2-1.6c-0.4-0.2-0.6-0.6-0.6-1v-8.9c0-0.2,0.1-0.4,0.2-0.5
					c0.2-0.1,0.3-0.1,0.5,0.1c2,1.2,4.1,2,6.3,2.5c1.9,0.5,4,0.8,6,0.8c1.9,0,3.3-0.3,4.2-0.7c0.8-0.4,1.4-1.2,1.4-2.1
					c0-0.7-0.4-1.4-1.2-2s-2.5-1.4-5-2.4c-2.6-0.9-5-2.1-7.2-3.7c-1.6-1.1-2.9-2.6-3.9-4.3c-0.8-1.6-1.2-3.4-1.2-5.2
					c0-2.2,0.6-4.3,1.7-6.2c1.3-2,3.2-3.7,5.4-4.7c2.4-1.2,5.4-1.8,9-1.8c2.1,0,4.2,0.2,6.3,0.5c1.5,0.2,3,0.6,4.4,1.2
					c0.2,0.1,0.4,0.3,0.5,0.5c0.1,0.2,0.1,0.4,0.1,0.6v8.3c0,0.2-0.1,0.4-0.3,0.5C548.1,127.5,547.9,127.5,547.7,127.4z"/>
			</g>
		</g>
	</g>
</g>
<image style="overflow:visible;" width="88" height="84" xlink:href="96x96.png"  transform="matrix(1 0 0 1 243 291)">
</image>
<image style="overflow:visible;" width="1300" height="727" xlink:href="44CE649ED7310C4F.jpg"  transform="matrix(1 0 0 1 -815 477.3398)">
</image>
</svg>
